<?xml version="1.0" encoding="UTF-8"?>
<svg id="Layer_2" data-name="Layer 2" xmlns="http://www.w3.org/2000/svg" viewBox="0 0 496.91 567.79">
  <defs>
    <style>
      .cls-1 {
        fill: #fff;
      }
    </style>
  </defs>
  <g id="_3" data-name="3">
    <g>
      <path class="cls-1" d="m496.13,236.07c-21.18,25.75-82.74,101.15-104.72,134.11-24.15,36.23-70.66,137.32-111.11,184.61.44-1.62,1.06-3.26,1.43-4.71,10.62-40.72,12.37-84.13,4.58-125.5-10.1-53.6-36.35-111.49-84.88-140.14-39.45-23.28-86.78-29.06-125.74-52.97-15.56-9.54-25.97-22.67-32.4-37.68h103.45l23.37-27.04,33.26,65.87,48.05-125.9,34.58,87.07h95.2c7,26.49,17.35,57.31,40.11,55.36,15.41-1.33,52.69-12.58,71.24-18.42,3.19-1,5.71,2.76,3.59,5.34Z"/>
      <path class="cls-1" d="m378.57,185.09h-86.47l-40.69-99.3-48.92,127.64-29.77-63.25-26.86,34.03H38.38c-8.79-20.53-6.12-54.21-3.02-77.5,3.94-29.55,18.17-54.54,38.42-74.21,17.49-12.24,35.14-19.97,46.98-22.98,52.48-13.36,105.93-17.18,167,19.09,61.08,36.27,75.4,94.48,83.98,115.47,2.74,6.69,3.54,28.62,6.82,41.01Z"/>
      <path class="cls-1" d="m269.59,558.07c-.38,1.45-1,3.08-1.43,4.71-1.14,1.34-2.29,2.65-3.42,3.89-2.34,2.58-6.58.33-5.75-3.06,8.51-34.54,24.78-136.07-46.42-228.22-48.67-62.99-149.91-52.4-188.96-98.29-8.8-10.34-16.62-25.23-19.53-37.56C-1.68,175.13.29,150.01.47,148.61c0-.05,0-.1,0-.14C3.09,106.39,26.8,62.74,54.88,43.1c-20.25,19.67-30.51,57.03-34.45,86.58-3.1,23.29-1.96,51.41,6.84,71.94,6.43,15.01,20.71,28.29,36.27,37.83,38.96,23.91,86.3,29.69,125.74,52.97,48.54,28.65,74.78,86.54,84.88,140.14,7.79,41.37,6.04,84.78-4.58,125.5Z"/>
    </g>
  </g>
</svg>