<?xml version="1.0" encoding="UTF-8"?>
<svg id="Layer_1" data-name="Layer 1" xmlns="http://www.w3.org/2000/svg" xmlns:xlink="http://www.w3.org/1999/xlink" viewBox="0 0 118.47 108.47">
  <defs>
    <style>
      .cls-1 {
        fill: url(#linear-gradient-2);
      }

      .cls-2 {
        fill: #9fd1d2;
      }

      .cls-3, .cls-4 {
        fill: #1d802f;
      }

      .cls-5 {
        fill: url(#linear-gradient-3);
      }

      .cls-6 {
        fill: url(#linear-gradient);
      }

      .cls-4 {
        font-family: Swiss721BT-Black, 'Swis721 Blk BT';
        font-size: 3.06px;
        font-weight: 800;
      }
    </style>
    <linearGradient id="linear-gradient" x1="-123.36" y1="-218.08" x2="-105.25" y2="-265.46" gradientTransform="translate(-186.1 154.53) rotate(90)" gradientUnits="userSpaceOnUse">
      <stop offset="0" stop-color="#8eba49"/>
      <stop offset=".15" stop-color="#4a9739"/>
      <stop offset=".28" stop-color="#167d2d"/>
      <stop offset=".35" stop-color="#037329"/>
    </linearGradient>
    <linearGradient id="linear-gradient-2" x1="-135.79" y1="-229.45" x2="-112.79" y2="-271.86" gradientTransform="translate(-186.1 154.53) rotate(90)" gradientUnits="userSpaceOnUse">
      <stop offset=".2" stop-color="#8eba49"/>
      <stop offset=".25" stop-color="#84b546"/>
      <stop offset=".33" stop-color="#6ba841"/>
      <stop offset=".44" stop-color="#439337"/>
      <stop offset=".55" stop-color="#0b772a"/>
      <stop offset=".57" stop-color="#037329"/>
    </linearGradient>
    <linearGradient id="linear-gradient-3" x1="-117.97" y1="-219.72" x2="-102.24" y2="-272.49" gradientTransform="translate(-186.1 154.53) rotate(90)" gradientUnits="userSpaceOnUse">
      <stop offset="0" stop-color="#38acbb"/>
      <stop offset=".73" stop-color="#aed6d5"/>
    </linearGradient>
  </defs>
  <path class="cls-6" d="m40.11,41.5c1.12.42,2.26.91,3.53,1.19,1.93.43,3.93.51,5.9.34,3.16-.27,5.97-1.11,8.5-2.39-1.95-.01-4.44-.55-6.65-2.61-3.57-3.33-4.85-5.79-5.21-6.63-.26-.59-.57-1.16-.98-1.65-1.24-1.49-3.92-3.29-8.52-.09-.59.7-1.1,1.51-1.52,2.46,0,0,0,0,0,0-1.07,3.9,1.25,8,4.96,9.38Z"/>
  <path class="cls-1" d="m45.19,29.74c.41.49.72,1.06.98,1.65.37.85,1.65,3.3,5.21,6.63,2.21,2.07,4.7,2.6,6.65,2.61h0c1.29-.65,2.5-1.4,3.65-2.27,0,0,0,0,0,0,6.94-7.01,7.34-15.24,5.04-20.12-1.41-3-4.31-5.15-7.62-5.3-1-.05-2,.08-2.98.38-1.98.6-3.7,1.93-4.74,3.71-1.96,3.38-1.3,7.44,1.03,11.93.32.71.48,1.36.36,1.94-.14.69-.82,1.06-1.51.96,0,0-.01,0-.02,0-.39-.06-.73-.3-.99-.6-3.04-3.4-6-4.69-8.92-4.26-1.91.33-3.46,1.22-4.67,2.65,4.6-3.2,7.28-1.4,8.52.09Z"/>
  <path class="cls-5" d="m60.04,64.49c6.64-1.58,6.56-6.89,5.87-12.55-.71-3.6,1.41-4.78,5.29-4.44,4.48-.11,7.95-1.35,10.59-3.55,1.82-1.51,3.17-3.57,3.5-5.92.21-1.51.03-2.86-.43-4.11-.7-1.9-2.12-3.5-3.96-4.36-2.15-1-4.54-.97-7.24.39-.2.1-.39.21-.58.32v-.02s0,.02-.04.04c-.68.4-1.33.87-1.92,1.39-2.73,1.96-7.47,5.35-8.74,6.14-3.18,1.93-6.8,3.89-9.55,4.68-1.47.34-3.02.54-4.66.59-1.31.04-2.62-.05-3.91-.29-2.2-.41-4.15-1.15-5.79-2.26-2.72-1.84-3.96-5.22-3.31-8.44h0c-.58,1.32-1.04,2.83-1.07,5.02-.01.95.09,1.9.34,2.82.66,2.38,2.08,4.2,4.25,5.46,1.39.8,2.96,1.24,4.55,1.41l6.64.74c4.82.39,4.75,3.1,3.27,6.47-1.99,4.06-1.82,7.15.66,9.19,1.72,1.42,4.07,1.79,6.24,1.27Z"/>
  <text class="cls-4" transform="translate(19.64 94.81)"><tspan x="0" y="0">AFRICAN MEDICAL EXHIBITION &amp; CONFERENCE</tspan></text>
  <path class="cls-3" d="m95.74,83.97l-.51.6c-1.51,1.76-3.34,2.62-5.58,2.62-2.04,0-3.69-.63-5.01-1.93-1.32-1.29-1.97-2.86-1.97-4.8,0-1.27.3-2.43.88-3.44.58-1.01,1.42-1.82,2.48-2.42,2.06-1.16,4.7-1.18,6.7-.22.95.46,1.79,1.14,2.47,2.03l.51.66,2.7-2.07-.47-.66c-.93-1.29-2.13-2.3-3.58-3.01-1.44-.71-3.07-1.06-4.84-1.06-2.95,0-5.44.97-7.41,2.89-1.98,1.92-2.98,4.32-2.98,7.13,0,2.66.82,4.96,2.45,6.85,1.94,2.24,4.62,3.38,7.95,3.38,1.74,0,3.35-.34,4.77-1,1.43-.67,2.65-1.62,3.6-2.84l.52-.67-2.7-2.05Z"/>
  <polygon class="cls-3" points="29.15 70.36 19.63 90.52 32.06 90.52 30.74 87.07 25.24 87.07 29.92 77.18 36.21 90.52 40.11 90.52 30.71 70.36 29.15 70.36"/>
  <polygon class="cls-3" points="59.72 70.36 52.63 80.85 45.55 70.36 43.81 70.36 40.83 90.52 44.34 90.52 46.25 77.6 50.54 83.95 46.1 90.52 50.29 90.52 52.63 87.05 54.98 90.52 59.17 90.52 54.73 83.95 59.02 77.6 60.93 90.52 64.44 90.52 61.46 70.36 59.72 70.36"/>
  <rect class="cls-3" x="65.51" y="78.53" width="7.66" height="3.54"/>
  <g>
    <rect class="cls-2" x="65.51" y="70.36" width="12.3" height="3.54"/>
    <rect class="cls-2" x="65.51" y="86.98" width="12.3" height="3.54"/>
  </g>
</svg>